<svg xmlns="http://www.w3.org/2000/svg" viewBox="0 0 640 480" preserveAspectRatio="xMidYMid slice">
  <defs>
    <radialGradient id="g" cx="20%" cy="16%" r="80%">
      <stop offset="0" stop-color="#3b82f6" stop-opacity="0.33" />
      <stop offset="1" stop-color="#121110" stop-opacity="0" />
    </radialGradient>
    <pattern id="grid" width="40" height="40" patternUnits="userSpaceOnUse">
      <path d="M40 0H0V40" fill="none" stroke="#fff" stroke-opacity="0.05" />
    </pattern>
  </defs>
  <rect width="640" height="480" fill="#121110" />
  <rect width="640" height="480" fill="url(#grid)" />
  <rect width="640" height="480" fill="url(#g)" />

  <!-- browser window -->
  <g fill="none" stroke="#fff" stroke-opacity="0.2" stroke-width="1.5">
    <rect x="118" y="104" width="404" height="272" rx="16" />
    <line x1="118" y1="146" x2="522" y2="146" />
  </g>
  <g fill="#fff" fill-opacity="0.3">
    <circle cx="144" cy="125" r="5" />
    <circle cx="162" cy="125" r="5" />
    <circle cx="180" cy="125" r="5" />
  </g>
  <g fill="none" stroke="#3b82f6" stroke-opacity="0.55" stroke-width="1.5">
    <rect x="142" y="170" width="150" height="118" rx="8" />
  </g>
  <g fill="none" stroke="#fff" stroke-opacity="0.18" stroke-width="1.5">
    <rect x="312" y="170" width="186" height="22" rx="6" />
    <rect x="312" y="206" width="150" height="14" rx="6" />
    <rect x="312" y="230" width="176" height="14" rx="6" />
    <rect x="312" y="254" width="120" height="14" rx="6" />
    <rect x="142" y="306" width="356" height="44" rx="8" />
  </g>

  <!-- code marks -->
  <g fill="#3b82f6" fill-opacity="0.55" font-family="monospace" font-size="34" font-weight="700">
    <text x="60" y="86">&lt;/&gt;</text>
    <text x="546" y="432">{ }</text>
  </g>
</svg>
